# xmcd
#
# Track frame offsets:
#	150
#	19793
#	42440
#	65637
#	87896
#	112900
#	131599
#	150666
#	176324
#	186808
#	207814
#
# Disc length: 2882 seconds
#
# Revision: 6
# Processed by: cddbd v1.5.2PL0 Copyright (c) Steve Scherf et al.
# Submitted via: Jack! The Knife 20 Magnifico
#
DISCID=8a0b400b
DTITLE=Loudness - 2-0-1-2
DYEAR=2012
DGENRE=Heavy Metal
TTITLE0=The Stronger
TTITLE1=2012 - End Of The Age
TTITLE2=Break New Ground
TTITLE3=Driving Force
TTITLE4=Behind The Scene
TTITLE5=Bang'em Dead
TTITLE6=The Voice Of Metal (Song for RJD)
TTITLE7=Who The Hell Cares
TTITLE8=Spirit From The East
TTITLE9=Memento Mori
TTITLE10=Out Of The Space
EXTD=Loudness
EXTT0=Akira Takasaki
EXTT1=Akira Takasaki
EXTT2=Akira Takasaki
EXTT3=Akira Takasaki
EXTT4=Akira Takasaki
EXTT5=Akira Takasaki
EXTT6=Akira Takasaki
EXTT7=Akira Takasaki
EXTT8=Akira Takasaki
EXTT9=Masayoshi Yamashita
EXTT10=Akira Takasaki
PLAYORDER=
